# xmcd
#
# Track frame offsets: 
#        150
#        32537
#        46027
#        63865
#        89355
#        116662
#        127675
#        130841
#        151614
#        176582
#
# Disc length: 4472 seconds
#
# Revision: 0
# Processed by: cddbd v1.5.2PL0 Copyright (c) Steve Scherf et al.
# Submitted via: ExactAudioCopy v0.95b3
#
DISCID=6d11760a
DTITLE=Jimi Hendrix  - TTG Studios (ATM 182) - Disc 3
DYEAR=1900
DGENRE=
TTITLE0=Peace In Mississippi
TTITLE1=Slow Walkin' Talk
TTITLE2=Jam #1
TTITLE3=Jam #2
TTITLE4=Jam #3
TTITLE5=Everything's Gonna Be Alright
TTITLE6=Lover Man
TTITLE7=Lover Man
TTITLE8=Lover Man
TTITLE9=Session Thing
EXTD=
EXTT0=
EXTT1=
EXTT2=
EXTT3=
EXTT4=
EXTT5=
EXTT6=
EXTT7=
EXTT8=
EXTT9=
PLAYORDER=
